<svg width="1440" height="174" viewBox="0 0 1440 174" fill="none" xmlns="http://www.w3.org/2000/svg">
<rect width="72.0003" height="86.7378" fill="#17172E"/>
<rect x="720" width="72.0003" height="72.2815" fill="#17172E"/>
<rect x="360" width="72.0003" height="54.2111" fill="#17172E"/>
<rect x="1080" width="72.0003" height="86.7378" fill="#17172E"/>
<rect x="72" width="72.0003" height="86.7378" fill="#17172E"/>
<rect x="792" width="72.0003" height="28.9126" fill="#17172E"/>
<rect x="432" width="72.0003" height="54.2111" fill="#17172E"/>
<rect x="1152" width="72.0003" height="46.983" fill="#17172E"/>
<rect x="0.000488281" y="86.7383" width="72.0003" height="86.7378" fill="#17172E"/>
<rect x="144" width="72.0003" height="86.7378" fill="#17172E"/>
<rect x="863.999" width="72.0003" height="151.791" fill="#17172E"/>
<rect x="504" width="72.0003" height="54.2111" fill="#17172E"/>
<rect x="1224" width="72.0003" height="72.2815" fill="#17172E"/>
<rect x="216" width="72.0003" height="86.7378" fill="#17172E"/>
<rect x="936" width="72.0003" height="54.2111" fill="#17172E"/>
<rect x="576" width="72.0003" height="54.2111" fill="#17172E"/>
<rect x="1296" width="72.0003" height="86.7378" fill="#17172E"/>
<rect x="181.333" y="54.2114" width="72.0003" height="86.7378" fill="#17172E"/>
<rect x="288" width="72.0003" height="86.7378" fill="#17172E"/>
<rect x="1008" width="72.0003" height="72.2815" fill="#17172E"/>
<rect x="445.333" y="28.9126" width="72.0003" height="86.7378" fill="#17172E"/>
<rect x="648" y="54.2114" width="72.0003" height="86.7378" fill="#17172E"/>
<rect x="648" width="72.0003" height="54.2111" fill="#17172E"/>
<rect x="1368" width="72.0003" height="151.791" fill="#17172E"/>
</svg>
