<svg width="1440" height="201" viewBox="0 0 1440 201" fill="none" xmlns="http://www.w3.org/2000/svg">
<rect width="72.0003" height="99.7401" transform="matrix(1 0 0 -1 0 200.033)" fill="#17172E"/>
<rect width="72.0003" height="83.1168" transform="matrix(1 0 0 -1 720 200.033)" fill="#17172E"/>
<rect width="72.0003" height="62.3376" transform="matrix(1 0 0 -1 360 200.033)" fill="#17172E"/>
<rect width="72.0003" height="99.7401" transform="matrix(1 0 0 -1 1080 200.033)" fill="#17172E"/>
<rect width="72.0003" height="99.7401" transform="matrix(1 0 0 -1 72 200.033)" fill="#17172E"/>
<rect width="72.0003" height="33.2467" transform="matrix(1 0 0 -1 792 200.033)" fill="#17172E"/>
<rect width="72.0003" height="62.3376" transform="matrix(1 0 0 -1 431.999 200.033)" fill="#17172E"/>
<rect width="72.0003" height="54.0259" transform="matrix(1 0 0 -1 1152 200.033)" fill="#17172E"/>
<rect width="72.0003" height="99.7401" transform="matrix(1 0 0 -1 0 100.293)" fill="#17172E"/>
<rect width="72.0003" height="99.7401" transform="matrix(1 0 0 -1 144 200.033)" fill="#17172E"/>
<rect width="72.0003" height="174.545" transform="matrix(1 0 0 -1 863.999 200.033)" fill="#17172E"/>
<rect width="72.0003" height="62.3376" transform="matrix(1 0 0 -1 504 200.033)" fill="#17172E"/>
<rect width="72.0003" height="83.1168" transform="matrix(1 0 0 -1 1224 200.033)" fill="#17172E"/>
<rect width="72.0003" height="99.7401" transform="matrix(1 0 0 -1 216 200.033)" fill="#17172E"/>
<rect width="72.0003" height="62.3376" transform="matrix(1 0 0 -1 936 200.033)" fill="#17172E"/>
<rect width="72.0003" height="62.3376" transform="matrix(1 0 0 -1 576 200.033)" fill="#17172E"/>
<rect width="72.0003" height="99.7401" transform="matrix(1 0 0 -1 1296 200.033)" fill="#17172E"/>
<rect width="72.0003" height="99.7401" transform="matrix(1 0 0 -1 181.333 137.696)" fill="#17172E"/>
<rect width="72.0003" height="99.7401" transform="matrix(1 0 0 -1 288 200.033)" fill="#17172E"/>
<rect width="72.0003" height="83.1168" transform="matrix(1 0 0 -1 1008 200.033)" fill="#17172E"/>
<rect width="72.0003" height="99.7401" transform="matrix(1 0 0 -1 445.333 166.787)" fill="#17172E"/>
<rect width="72.0003" height="99.7401" transform="matrix(1 0 0 -1 648 137.696)" fill="#17172E"/>
<rect width="72.0003" height="62.3376" transform="matrix(1 0 0 -1 648 200.033)" fill="#17172E"/>
<rect width="72.0003" height="174.545" transform="matrix(1 0 0 -1 1368 200.033)" fill="#17172E"/>
</svg>
