<svg width="1906" height="150" viewBox="0 0 1906 150" fill="none" xmlns="http://www.w3.org/2000/svg">
<path d="M0 150L45.5322 139.87C91.0644 129.935 182.129 109.675 272.77 109.091C363.622 108.506 453.84 127.208 544.692 125.26C635.333 123.312 726.398 100.714 817.039 87.6623C907.891 74.6104 998.109 71.4935 1088.96 72.0779C1179.6 72.6623 1270.67 77.3377 1361.31 89.6104C1452.16 101.883 1542.38 122.143 1633.23 128.961C1723.87 135.779 1814.94 129.156 1860.47 126.039L1906 122.727V0H1860.47C1814.94 0 1723.87 0 1633.23 0C1542.38 0 1452.16 0 1361.31 0C1270.67 0 1179.6 0 1088.96 0C998.109 0 907.891 0 817.039 0C726.398 0 635.333 0 544.692 0C453.84 0 363.622 0 272.77 0C182.129 0 91.0644 0 45.5322 0H0V150Z" fill="#5A5AB5"/>
</svg>
